<?xml version="1.0" encoding="UTF-8" standalone="no"?>
<!-- Created with Inkscape (http://www.inkscape.org/) -->

<svg
   xmlns:dc="http://purl.org/dc/elements/1.1/"
   xmlns:cc="http://creativecommons.org/ns#"
   xmlns:rdf="http://www.w3.org/1999/02/22-rdf-syntax-ns#"
   xmlns:svg="http://www.w3.org/2000/svg"
   xmlns="http://www.w3.org/2000/svg"
   xmlns:sodipodi="http://sodipodi.sourceforge.net/DTD/sodipodi-0.dtd"
   xmlns:inkscape="http://www.inkscape.org/namespaces/inkscape"
   width="66.977829mm"
   height="66.977821mm"
   viewBox="0 0 66.977829 66.977821"
   version="1.1"
   id="svg951"
   inkscape:version="0.92.4 (5da689c313, 2019-01-14)"
   sodipodi:docname="copy_link.svg"
   inkscape:export-filename="C:\Users\PC-admin\Documents\ActualDocuments\Dev\ee2buildplanner\src\images\interface\copy_link.png"
   inkscape:export-xdpi="24.270721"
   inkscape:export-ydpi="24.270721">
  <defs
     id="defs945" />
  <sodipodi:namedview
     id="base"
     pagecolor="#ffffff"
     bordercolor="#666666"
     borderopacity="1.0"
     inkscape:pageopacity="0.0"
     inkscape:pageshadow="2"
     inkscape:zoom="1.979899"
     inkscape:cx="34.19937"
     inkscape:cy="83.712632"
     inkscape:document-units="mm"
     inkscape:current-layer="layer1"
     showgrid="false"
     inkscape:object-paths="false"
     inkscape:snap-smooth-nodes="true"
     fit-margin-top="0"
     fit-margin-left="0"
     fit-margin-right="0"
     fit-margin-bottom="0"
     inkscape:window-width="1920"
     inkscape:window-height="1017"
     inkscape:window-x="-8"
     inkscape:window-y="-8"
     inkscape:window-maximized="1" />
  <metadata
     id="metadata948">
    <rdf:RDF>
      <cc:Work
         rdf:about="">
        <dc:format>image/svg+xml</dc:format>
        <dc:type
           rdf:resource="http://purl.org/dc/dcmitype/StillImage" />
        <dc:title></dc:title>
      </cc:Work>
    </rdf:RDF>
  </metadata>
  <g
     inkscape:label="Layer 1"
     inkscape:groupmode="layer"
     id="layer1"
     transform="translate(-71.510879,-115.01107)">
    <path
       style="opacity:1;vector-effect:none;fill:#ffffff;fill-opacity:1;fill-rule:nonzero;stroke:none;stroke-width:27.43538094;stroke-linecap:butt;stroke-linejoin:miter;stroke-miterlimit:4;stroke-dasharray:none;stroke-dashoffset:0;stroke-opacity:1;paint-order:markers stroke fill"
       d="m 458.13672,434.6875 a 48.739857,61.827556 45 0 0 -9.26758,43.47852 48.739857,61.827552 45 0 0 -57.27734,20.19336 48.739857,61.827552 45 0 0 -20.09571,36.49609 48.739857,61.827556 45 0 0 -38.3164,20.37695 48.739857,61.827556 45 0 0 -20.21289,57.27149 48.739857,61.827556 45 0 0 -42.68946,8.79882 v 13.49219 a 37.628177,47.732155 45 0 1 53.64844,-1.38086 37.628177,47.732155 45 0 1 -1.94922,54.41797 h 13.59375 a 48.739857,61.827556 45 0 0 9.28125,-43.47461 48.739857,61.827556 45 0 0 57.25586,-20.19726 48.739857,61.827556 45 0 0 20.0957,-36.4961 48.739857,61.827552 45 0 0 38.31836,-20.375 48.739857,61.827552 45 0 0 20.21485,-57.25586 48.739857,61.827556 45 0 0 42.68555,-8.80859 v -13.50195 a 37.628177,47.732155 45 0 1 -53.64649,1.38281 37.628177,47.732155 45 0 1 1.94531,-54.41797 z m -22.18164,55.1582 a 37.628177,47.732155 45 0 1 23.85351,9.22657 37.628177,47.732155 45 0 1 -7.14648,60.35937 37.628177,47.732155 45 0 1 -29.43164,15.70313 48.739857,61.827556 45 0 0 -11.86719,-29.15821 48.739857,61.827556 45 0 0 -27.34375,-11.82812 37.628177,47.732155 45 0 1 15.42969,-27.93164 37.628177,47.732155 45 0 1 36.50586,-16.3711 z m -52.58789,57.33985 a 37.628177,47.732155 45 0 1 18.02734,8.75976 37.628177,47.732155 45 0 1 8.9375,19.38672 37.628177,47.732155 45 0 1 -18.02734,-8.75586 37.628177,47.732155 45 0 1 -8.9375,-19.39062 z m -12.89649,0.19726 a 48.739857,61.827552 45 0 0 11.86719,29.16016 48.739857,61.827552 45 0 0 27.3418,11.82812 37.628177,47.732155 45 0 1 -15.42969,27.93164 37.628177,47.732155 45 0 1 -60.35742,7.14454 37.628177,47.732155 45 0 1 7.14258,-60.35938 37.628177,47.732155 45 0 1 29.43554,-15.70508 z"
       transform="scale(0.26458333)"
       id="rect1568"
       inkscape:connector-curvature="0" />
  </g>
</svg>
